# xmcd
#
# Track frame offsets: 
#        150
#        18100
#        35818
#        63515
#        79680
#        93913
#        112332
#        131977
#        150622
#        168755
#        187298
#        209296
#        225322
#        242748
#        253383
#        270431
#        283594
#        298959
#        317776
#        335442
#
# Disc length: 4675 seconds
#
# Revision: 0
# Processed by: cddbd v1.5.2PL0 Copyright (c) Steve Scherf et al.
# Submitted via: ExactAudioCopy v0.99pb4
#
DISCID=2d124114
DTITLE=Various Artist - 100 Op 1 De Beste Belgen - CD5
DYEAR=2015
DGENRE=Pop-Folk
TTITLE0=Yevgueni - Als Ze Lacht
TTITLE1=2 Belgen - Lena
TTITLE2=Daan - Housewife
TTITLE3=Technotronic - Pump Up The Jam
TTITLE4=Gorki - Lieve Kleine Piranha
TTITLE5=Balthazar - Then What
TTITLE6=Roland and Wannes - Oorlogsgeleerden
TTITLE7=Senne Guns - De Goudvis
TTITLE8=Lieven - Neerhof
TTITLE9=Monza - Van God Los
TTITLE10=De Kreuners - Layla
TTITLE11=Ozark Henry - I'm Your Sacrifice
TTITLE12=Won Ton Ton - I Lie And I Cheat
TTITLE13=Marble Sounds - Leave A Light On
TTITLE14=Novastar - The Best Is Yet To Come
TTITLE15=Eva De Roovere - Fantastig Toch
TTITLE16=Noordkaap - Ik Hou Van U
TTITLE17=Gabriel Rios - Gold
TTITLE18=Ann Christy - De Roos
TTITLE19=Tourist LeMC - Koning Liefde
EXTD=
EXTT0=
EXTT1=
EXTT2=
EXTT3=
EXTT4=
EXTT5=
EXTT6=
EXTT7=
EXTT8=
EXTT9=
EXTT10=
EXTT11=
EXTT12=
EXTT13=
EXTT14=
EXTT15=
EXTT16=
EXTT17=
EXTT18=
EXTT19=
PLAYORDER=
